<svg xmlns="http://www.w3.org/2000/svg" xmlns:xlink="http://www.w3.org/1999/xlink" width="1920" zoomAndPan="magnify" viewBox="0 0 1440 1439.999935" height="1920" preserveAspectRatio="xMidYMid meet" version="1.0"><path fill="#000000" d="M 410.6875 672.109375 L 417.21875 659.046875 L 404.128906 645.957031 L 404.128906 599.226562 C 404.128906 583.859375 391.625 571.355469 376.257812 571.355469 L 171.871094 571.355469 C 156.503906 571.355469 144 583.859375 144 599.226562 L 144 654.96875 C 144 662.128906 146.796875 668.605469 151.246094 673.546875 C 146.796875 678.492188 144 684.964844 144 692.128906 L 144 747.871094 C 144 755.035156 146.796875 761.507812 151.246094 766.453125 C 146.796875 771.394531 144 777.871094 144 785.03125 L 144 840.773438 C 144 856.140625 156.503906 868.644531 171.871094 868.644531 L 376.257812 868.644531 C 391.625 868.644531 404.128906 856.140625 404.128906 840.773438 L 404.128906 794.042969 L 417.21875 780.953125 L 410.6875 767.890625 C 413.746094 762.140625 416.242188 756.121094 418.148438 749.886719 L 432 745.277344 L 432 694.730469 L 418.148438 690.113281 C 416.242188 683.878906 413.746094 677.851562 410.6875 672.109375 Z M 385.546875 599.226562 L 385.546875 627.367188 L 381.480469 623.289062 L 368.417969 629.820312 C 362.675781 626.761719 356.644531 624.273438 350.414062 622.367188 L 345.796875 608.515625 L 311.226562 608.515625 L 311.226562 589.933594 L 376.257812 589.933594 C 381.386719 589.933594 385.546875 594.105469 385.546875 599.226562 Z M 162.582031 747.871094 L 162.582031 692.128906 C 162.582031 687.011719 166.742188 682.839844 171.871094 682.839844 L 292.644531 682.839844 L 292.644531 757.160156 L 171.871094 757.160156 C 166.742188 757.160156 162.582031 752.988281 162.582031 747.871094 Z M 311.226562 746.160156 C 314.144531 747.203125 317.246094 747.871094 320.515625 747.871094 C 335.882812 747.871094 348.386719 735.367188 348.386719 720 C 348.386719 704.632812 335.882812 692.128906 320.515625 692.128906 C 317.246094 692.128906 314.144531 692.796875 311.226562 693.839844 L 311.226562 674.578125 C 314.273438 673.957031 317.355469 673.546875 320.515625 673.546875 C 346.128906 673.546875 366.96875 694.386719 366.96875 720 C 366.96875 745.613281 346.128906 766.453125 320.515625 766.453125 C 317.355469 766.453125 314.273438 766.042969 311.226562 765.421875 Z M 311.226562 720 C 311.226562 714.882812 315.386719 710.710938 320.515625 710.710938 C 325.644531 710.710938 329.804688 714.882812 329.804688 720 C 329.804688 725.117188 325.644531 729.289062 320.515625 729.289062 C 315.386719 729.289062 311.226562 725.117188 311.226562 720 Z M 162.582031 599.226562 C 162.582031 594.105469 166.742188 589.933594 171.871094 589.933594 L 292.644531 589.933594 L 292.644531 664.257812 L 171.871094 664.257812 C 166.742188 664.257812 162.582031 660.085938 162.582031 654.96875 Z M 162.582031 840.773438 L 162.582031 785.03125 C 162.582031 779.914062 166.742188 775.742188 171.871094 775.742188 L 292.644531 775.742188 L 292.644531 850.0625 L 171.871094 850.0625 C 166.742188 850.0625 162.582031 845.894531 162.582031 840.773438 Z M 385.546875 840.773438 C 385.546875 845.894531 381.386719 850.0625 376.257812 850.0625 L 311.226562 850.0625 L 311.226562 831.484375 L 345.796875 831.484375 L 350.414062 817.632812 C 356.644531 815.726562 362.667969 813.226562 368.417969 810.179688 L 381.480469 816.710938 L 385.546875 812.632812 Z M 413.417969 731.882812 L 402.761719 735.429688 L 401.519531 740.375 C 399.53125 748.296875 396.390625 755.859375 392.199219 762.855469 L 389.589844 767.222656 L 394.617188 777.285156 L 377.808594 794.089844 L 367.738281 789.0625 L 363.371094 791.683594 C 356.386719 795.875 348.824219 799.003906 340.890625 800.992188 L 335.957031 802.226562 L 332.398438 812.902344 L 311.226562 812.902344 L 311.226562 784.25 C 314.292969 784.6875 317.386719 785.03125 320.515625 785.03125 C 356.367188 785.03125 385.546875 755.859375 385.546875 720 C 385.546875 684.140625 356.367188 654.96875 320.515625 654.96875 C 317.386719 654.96875 314.292969 655.3125 311.226562 655.746094 L 311.226562 627.097656 L 332.398438 627.097656 L 335.957031 637.761719 L 340.890625 638.996094 C 348.824219 640.984375 356.386719 644.125 363.371094 648.304688 L 367.738281 650.925781 L 377.808594 645.898438 L 394.617188 662.707031 L 389.589844 672.769531 L 392.199219 677.132812 C 396.390625 684.128906 399.53125 691.691406 401.519531 699.617188 L 402.761719 704.558594 L 413.417969 708.117188 Z M 413.417969 731.882812 " fill-opacity="1" fill-rule="nonzero"/><path fill="#000000" d="M 589.933594 432 L 589.933594 599.226562 L 720 599.226562 L 720 432 Z M 701.417969 580.644531 L 608.515625 580.644531 L 608.515625 450.582031 L 701.417969 450.582031 Z M 701.417969 580.644531 " fill-opacity="1" fill-rule="nonzero"/><path fill="#000000" d="M 589.933594 803.613281 L 720 803.613281 L 720 636.386719 L 589.933594 636.386719 Z M 608.515625 654.96875 L 701.417969 654.96875 L 701.417969 785.03125 L 608.515625 785.03125 Z M 608.515625 654.96875 " fill-opacity="1" fill-rule="nonzero"/><path fill="#000000" d="M 589.933594 1008 L 720 1008 L 720 840.773438 L 589.933594 840.773438 Z M 608.515625 859.355469 L 701.417969 859.355469 L 701.417969 989.417969 L 608.515625 989.417969 Z M 608.515625 859.355469 " fill-opacity="1" fill-rule="nonzero"/><path fill="#000000" d="M 627.097656 877.933594 L 682.839844 877.933594 L 682.839844 896.515625 L 627.097656 896.515625 Z M 627.097656 877.933594 " fill-opacity="1" fill-rule="nonzero"/><path fill="#000000" d="M 627.097656 915.097656 L 682.839844 915.097656 L 682.839844 933.675781 L 627.097656 933.675781 Z M 627.097656 915.097656 " fill-opacity="1" fill-rule="nonzero"/><path fill="#000000" d="M 627.097656 952.257812 L 682.839844 952.257812 L 682.839844 970.839844 L 627.097656 970.839844 Z M 627.097656 952.257812 " fill-opacity="1" fill-rule="nonzero"/><path fill="#000000" d="M 627.097656 673.546875 L 682.839844 673.546875 L 682.839844 692.128906 L 627.097656 692.128906 Z M 627.097656 673.546875 " fill-opacity="1" fill-rule="nonzero"/><path fill="#000000" d="M 627.097656 710.710938 L 682.839844 710.710938 L 682.839844 729.289062 L 627.097656 729.289062 Z M 627.097656 710.710938 " fill-opacity="1" fill-rule="nonzero"/><path fill="#000000" d="M 627.097656 747.871094 L 682.839844 747.871094 L 682.839844 766.453125 L 627.097656 766.453125 Z M 627.097656 747.871094 " fill-opacity="1" fill-rule="nonzero"/><path fill="#000000" d="M 627.097656 469.160156 L 682.839844 469.160156 L 682.839844 487.742188 L 627.097656 487.742188 Z M 627.097656 469.160156 " fill-opacity="1" fill-rule="nonzero"/><path fill="#000000" d="M 627.097656 506.324219 L 682.839844 506.324219 L 682.839844 524.902344 L 627.097656 524.902344 Z M 627.097656 506.324219 " fill-opacity="1" fill-rule="nonzero"/><path fill="#000000" d="M 627.097656 543.484375 L 682.839844 543.484375 L 682.839844 562.0625 L 627.097656 562.0625 Z M 627.097656 543.484375 " fill-opacity="1" fill-rule="nonzero"/><path fill="#000000" d="M 450.582031 710.710938 L 571.355469 710.710938 L 571.355469 729.289062 L 450.582031 729.289062 Z M 450.582031 710.710938 " fill-opacity="1" fill-rule="nonzero"/><path fill="#000000" d="M 534.195312 905.804688 L 534.195312 775.742188 C 534.195312 760.375 521.6875 747.871094 506.324219 747.871094 L 450.582031 747.871094 L 450.582031 766.453125 L 506.324219 766.453125 C 511.449219 766.453125 515.613281 770.621094 515.613281 775.742188 L 515.613281 905.804688 C 515.613281 921.171875 528.117188 933.675781 543.484375 933.675781 L 571.355469 933.675781 L 571.355469 915.097656 L 543.484375 915.097656 C 538.355469 915.097656 534.195312 910.925781 534.195312 905.804688 Z M 534.195312 905.804688 " fill-opacity="1" fill-rule="nonzero"/><path fill="#000000" d="M 515.613281 534.195312 L 515.613281 664.257812 C 515.613281 669.375 511.449219 673.546875 506.324219 673.546875 L 450.582031 673.546875 L 450.582031 692.128906 L 506.324219 692.128906 C 521.6875 692.128906 534.195312 679.625 534.195312 664.257812 L 534.195312 534.195312 C 534.195312 529.074219 538.355469 524.902344 543.484375 524.902344 L 571.355469 524.902344 L 571.355469 506.324219 L 543.484375 506.324219 C 528.117188 506.324219 515.613281 518.828125 515.613281 534.195312 Z M 515.613281 534.195312 " fill-opacity="1" fill-rule="nonzero"/><path fill="#000000" d="M 181.160156 608.515625 L 199.742188 608.515625 L 199.742188 645.675781 L 181.160156 645.675781 Z M 181.160156 608.515625 " fill-opacity="1" fill-rule="nonzero"/><path fill="#000000" d="M 218.324219 608.515625 L 236.902344 608.515625 L 236.902344 645.675781 L 218.324219 645.675781 Z M 218.324219 608.515625 " fill-opacity="1" fill-rule="nonzero"/><path fill="#000000" d="M 181.160156 794.324219 L 199.742188 794.324219 L 199.742188 831.484375 L 181.160156 831.484375 Z M 181.160156 794.324219 " fill-opacity="1" fill-rule="nonzero"/><path fill="#000000" d="M 218.324219 794.324219 L 236.902344 794.324219 L 236.902344 831.484375 L 218.324219 831.484375 Z M 218.324219 794.324219 " fill-opacity="1" fill-rule="nonzero"/></svg>